# xmcd
# 
# Track frame offsets:
#     150
#     14755
#     29745
#     40115
#     53690
#     74017
#     87730
#     101012
#     115100
#     131352
# 
# Disc length: 1912
# 
# Revision: 1
# Processed by: cddbd v1.5.2PL0 Copyright (c) Steve Scherf et al.
# Submitted via: BonkEnc v1.0.6
# 
DISCID=8e07760a
DTITLE=Ella Fitzgerald - Love and Kisses
DYEAR=0
DGENRE=
TTITLE0=If You Should Ever Leave
TTITLE1=Love and Kisses
TTITLE2=How High The Moon
TTITLE3=Just A Simple Melody
TTITLE4=I Want To Be Happy
TTITLE5=Starlit Hour
TTITLE6=Sugar Blues
TTITLE7=Everyone's Wrong But Me
TTITLE8=It's A Blue World
TTITLE9=All Over Nothing At All
EXTD=
EXTT0=
EXTT1=
EXTT2=
EXTT3=
EXTT4=
EXTT5=
EXTT6=
EXTT7=
EXTT8=
EXTT9=
PLAYORDER=
